Coordinates
version=1
nRows=13
nColumns=40
inDegrees=yes

Units are S.I. units (second, meters, Newtons, ...)
If the header above contains a line with 'inDegrees', this indicates whether rotational values are in degrees (yes) or radians (no).

endheader
time	pelvis_tilt	pelvis_list	pelvis_rotation	pelvis_tx	pelvis_ty	pelvis_tz	hip_flexion_r	hip_adduction_r	hip_rotation_r	knee_angle_r	knee_angle_r_beta	ankle_angle_r	subtalar_angle_r	mtp_angle_r	hip_flexion_l	hip_adduction_l	hip_rotation_l	knee_angle_l	knee_angle_l_beta	ankle_angle_l	subtalar_angle_l	mtp_angle_l	lumbar_extension	lumbar_bending	lumbar_rotation	arm_flex_r	arm_add_r	arm_rot_r	elbow_flex_r	pro_sup_r	wrist_flex_r	wrist_dev_r	arm_flex_l	arm_add_l	arm_rot_l	elbow_flex_l	pro_sup_l	wrist_flex_l	wrist_dev_l
     10.17500000	     -7.61134240	      1.33578905	   -174.89080092	      0.15000264	      0.80778546	     -0.93229735	    -12.43501337	    -28.19687960	    -37.74069522	      4.05083738	      0.07070045	    -10.58626598	      0.00000000	      0.00000000	     -6.54506532	    -34.67152024	    -32.09552381	      7.08665822	      0.12368552	    -10.57214050	      0.00000000	      0.00000000	    -14.13338934	     -2.32683258	      2.19528847	     11.69784534	    -15.37979995	     52.77783410	     18.20454729	     84.56907742	      0.00000000	      0.00000000	     15.00346252	    -14.77465966	     46.57583134	     16.58197040	     81.87011765	      0.00000000	      0.00000000
     10.18000000	     -7.81244162	      1.07121876	   -175.04554482	      0.14951319	      0.80787363	     -0.93248334	    -12.63554796	    -28.51928733	    -37.62154084	      4.10910873	      0.07171748	    -10.47033744	      0.00000000	      0.00000000	     -7.02866812	    -34.34374550	    -32.39755467	      6.91195604	      0.12063639	    -10.60721543	      0.00000000	      0.00000000	    -14.17796488	     -2.66237415	      2.29263965	     11.57267452	    -15.21847023	     52.21733852	     18.07482089	     84.78877927	      0.00000000	      0.00000000	     14.81907533	    -14.75154317	     45.77556734	     16.68534283	     81.48235306	      0.00000000	      0.00000000
     10.18500000	     -7.98681494	      0.96082564	   -175.05513563	      0.14916810	      0.80798307	     -0.93245906	    -12.84761763	    -28.63666995	    -37.59643582	      4.16455814	      0.07268525	    -10.47387553	      0.00000000	      0.00000000	     -7.29687911	    -34.22100456	    -32.46837151	      6.84738742	      0.11950946	    -10.65128898	      0.00000000	      0.00000000	    -14.21480453	     -2.76322337	      2.22704857	     11.60468212	    -15.17003924	     52.40186059	     17.99233913	     84.91309236	      0.00000000	      0.00000000	     14.46745276	    -14.27756705	     42.89789421	     16.32249348	     81.54531185	      0.00000000	      0.00000000
     10.19000000	     -8.20806115	      0.82727252	   -175.06729791	      0.14880704	      0.80806959	     -0.93247097	    -13.14840708	    -28.75418853	    -37.62472321	      4.14002289	      0.07225703	    -10.40761388	      0.00000000	      0.00000000	     -7.65001713	    -34.07364533	    -32.55992894	      6.74572157	      0.11773505	    -10.63323125	      0.00000000	      0.00000000	    -14.31257963	     -2.89800464	      2.24411945	     11.53651573	    -15.16661099	     52.45070445	     18.01289820	     84.94239419	      0.00000000	      0.00000000	     14.30247920	    -13.98970219	     41.08942406	     16.15108779	     81.81151923	      0.00000000	      0.00000000
     10.19500000	     -8.40631405	      0.72268942	   -175.03056489	      0.14850489	      0.80817560	     -0.93237901	    -13.42392408	    -28.85004254	    -37.68065159	      4.16829217	      0.07275042	    -10.38671231	      0.00000000	      0.00000000	     -7.91253588	    -33.96731512	    -32.56601701	      6.68453541	      0.11666715	    -10.64631659	      0.00000000	      0.00000000	    -14.38280312	     -3.00872395	      2.22790711	     11.33537016	    -15.02172394	     51.39566877	     17.95916596	     85.06563561	      0.00000000	      0.00000000	     14.17360128	    -13.85502447	     39.99180469	     16.14342771	     81.92182849	      0.00000000	      0.00000000
     10.20000000	     -8.60639424	      0.52150694	   -175.06205008	      0.14820377	      0.80824989	     -0.93236406	    -13.67148898	    -29.07568305	    -37.68155541	      4.23228489	      0.07386731	    -10.27984275	      0.00000000	      0.00000000	     -8.23313168	    -33.74364806	    -32.63591363	      6.60468887	      0.11527357	    -10.64006454	      0.00000000	      0.00000000	    -14.47278149	     -3.22445155	      2.24068460	     11.49919728	    -15.23157276	     53.01319465	     18.11566628	     84.67806427	      0.00000000	      0.00000000	     14.05327421	    -13.74979725	     39.05074299	     16.20331652	     82.20213192	      0.00000000	      0.00000000
     10.20500000	     -8.75683241	      0.37435580	   -175.05566667	      0.14794019	      0.80830205	     -0.93230075	    -13.89257186	    -29.21975547	    -37.70148459	      4.22591206	      0.07375608	    -10.27889821	      0.00000000	      0.00000000	     -8.44081787	    -33.58620061	    -32.65141177	      6.56501664	      0.11458116	    -10.63386138	      0.00000000	      0.00000000	    -14.52281705	     -3.35737440	      2.12424657	     11.51486135	    -15.17536326	     53.04137948	     18.07240053	     84.89839849	      0.00000000	      0.00000000	     13.77575057	    -13.21050927	     35.71313205	     15.86252397	     82.23145824	      0.00000000	      0.00000000
     10.21000000	     -8.93189026	      0.22903894	   -175.09336586	      0.14771597	      0.80837365	     -0.93230852	    -14.09634723	    -29.38684855	    -37.70600034	      4.27573486	      0.07462565	    -10.22378300	      0.00000000	      0.00000000	     -8.73353817	    -33.41258243	    -32.70159077	      6.47471463	      0.11300509	    -10.63450874	      0.00000000	      0.00000000	    -14.60083686	     -3.52608227	      2.17511622	     11.37852443	    -15.05682048	     52.31468452	     17.99531221	     84.95786120	      0.00000000	      0.00000000	     13.67094996	    -13.02847891	     34.53819212	     15.80389044	     82.18053771	      0.00000000	      0.00000000
     10.21500000	     -9.09833975	      0.08904129	   -175.10840831	      0.14751272	      0.80844529	     -0.93226127	    -14.30579941	    -29.53871347	    -37.72476104	      4.31340674	      0.07528315	    -10.18063655	      0.00000000	      0.00000000	     -8.98766464	    -33.25417779	    -32.70278085	      6.40906213	      0.11185924	    -10.62699613	      0.00000000	      0.00000000	    -14.67008366	     -3.67247352	      2.16838749	     11.35129148	    -15.03479592	     52.36337847	     17.98098855	     84.93410487	      0.00000000	      0.00000000	     13.54801111	    -12.84983257	     33.26560919	     15.76270445	     82.19201633	      0.00000000	      0.00000000
     10.22000000	     -9.24075226	      0.00323597	   -175.10317133	      0.14734606	      0.80847805	     -0.93221087	    -14.48776124	    -29.63307155	    -37.78618422	      4.33395296	      0.07564175	    -10.18864073	      0.00000000	      0.00000000	     -9.17507228	    -33.16451357	    -32.68301498	      6.37813644	      0.11131948	    -10.60223079	      0.00000000	      0.00000000	    -14.73670271	     -3.73493447	      2.03263104	     11.46336287	    -15.00182625	     52.76777690	     17.91986557	     84.93750249	      0.00000000	      0.00000000	     13.29818024	    -12.33977716	     29.90530137	     15.52702344	     82.34359727	      0.00000000	      0.00000000
     10.22500000	     -9.37850986	     -0.12584286	   -175.14268300	      0.14719713	      0.80853563	     -0.93220060	    -14.66499030	    -29.76257005	    -37.78231193	      4.32116019	      0.07541847	    -10.15129845	      0.00000000	      0.00000000	     -9.39893615	    -33.01526715	    -32.68810007	      6.32824595	      0.11044873	    -10.61470040	      0.00000000	      0.00000000	    -14.79877263	     -3.86993875	      1.98857385	     11.47649850	    -15.00681044	     52.96953577	     17.95708964	     84.80736718	      0.00000000	      0.00000000	     13.19073947	    -11.85835860	     27.11108823	     15.23703363	     82.68912096	      0.00000000	      0.00000000
     10.23000000	     -9.51165967	     -0.24548056	   -175.16960383	      0.14706698	      0.80857136	     -0.93214328	    -14.83629399	    -29.89061023	    -37.76199337	      4.32817138	      0.07554084	    -10.11311792	      0.00000000	      0.00000000	     -9.59448330	    -32.88221494	    -32.70127485	      6.29807863	      0.10992221	    -10.59335411	      0.00000000	      0.00000000	    -14.85280366	     -3.99562922	      1.97153377	     11.44632704	    -14.95702175	     52.79257988	     17.90493069	     84.92453944	      0.00000000	      0.00000000	     13.07431687	    -11.59768040	     25.42312596	     15.15026455	     82.61716807	      0.00000000	      0.00000000
     10.23500000	     -9.58678244	     -0.21056055	   -175.02062817	      0.14708009	      0.80848592	     -0.93189924	    -15.02013148	    -29.80940255	    -37.91390580	      4.30429212	      0.07512407	    -10.13576746	      0.00000000	      0.00000000	     -9.52294585	    -32.98210883	    -32.43677411	      6.41518263	      0.11196606	    -10.44050421	      0.00000000	      0.00000000	    -14.85713657	     -3.92259334	      1.85615333	     11.65384696	    -15.13722453	     54.23228747	     17.96141186	     85.39428183	      0.00000000	      0.00000000	     12.98656045	    -11.59729673	     25.06833848	     15.29644411	     82.97618111	      0.00000000	      0.00000000
